<svg width="860" height="204" viewBox="0 0 860 204" fill="none" xmlns="http://www.w3.org/2000/svg">
<g clip-path="url(#clip0_42_333)">
<rect width="860" height="204" rx="8" fill="#A2A2A2"/>
<rect width="860" height="234" fill="white"/>
<path d="M212.833 58.6977C214.514 57.1926 214.665 54.6008 213.07 53.0041C203.424 43.3445 191.303 36.4813 178.001 33.1924C163.375 29.576 147.998 30.4489 133.874 35.6976C119.751 40.9462 107.535 50.3271 98.82 62.6179C90.1046 74.9088 85.2934 89.5398 85.013 104.604C84.7326 119.669 88.9962 134.469 97.2481 147.076C105.5 159.682 117.358 169.511 131.276 175.282C145.195 181.052 160.529 182.497 175.28 179.427C188.695 176.635 201.063 170.228 211.061 160.934C212.714 159.398 212.66 156.802 211.036 155.235C209.412 153.669 206.834 153.726 205.171 155.251C196.32 163.369 185.423 168.97 173.615 171.427C160.471 174.162 146.808 172.875 134.406 167.733C122.004 162.592 111.438 153.833 104.085 142.6C96.7321 131.367 92.9331 118.18 93.1829 104.756C93.4327 91.3331 97.7198 78.2962 105.486 67.3444C113.251 56.3927 124.136 48.0338 136.72 43.3571C149.305 38.6803 163.007 37.9024 176.04 41.1248C187.748 44.0196 198.429 50.0221 206.972 58.4641C208.577 60.0501 211.152 60.2028 212.833 58.6977Z" fill="url(#paint0_linear_42_333)"/>
<path d="M212.214 153.983C213.876 155.51 216.471 155.407 217.906 153.664C228.637 140.629 234.682 124.314 234.988 107.353C235.294 90.3915 229.841 73.8699 219.588 60.4554C218.217 58.6619 215.627 58.4657 213.91 59.9322C212.194 61.3987 212.003 63.972 213.362 65.7746C222.324 77.6628 227.084 92.2421 226.814 107.205C226.544 122.169 221.261 136.567 211.876 148.124C210.453 149.877 210.551 152.455 212.214 153.983Z" fill="#D9D9D9"/>
<path d="M127.199 90.848V92.032H124.159V102H122.703V92.032H119.647V90.848H127.199ZM132.885 102.144C132.064 102.144 131.317 101.957 130.645 101.584C129.984 101.211 129.461 100.683 129.077 100C128.704 99.3067 128.517 98.5067 128.517 97.6C128.517 96.704 128.709 95.9147 129.093 95.232C129.488 94.5387 130.021 94.0107 130.693 93.648C131.365 93.2747 132.117 93.088 132.949 93.088C133.781 93.088 134.533 93.2747 135.205 93.648C135.877 94.0107 136.405 94.5333 136.789 95.216C137.184 95.8987 137.381 96.6933 137.381 97.6C137.381 98.5067 137.179 99.3067 136.773 100C136.379 100.683 135.84 101.211 135.157 101.584C134.475 101.957 133.717 102.144 132.885 102.144ZM132.885 100.864C133.408 100.864 133.899 100.741 134.357 100.496C134.816 100.251 135.184 99.8827 135.461 99.392C135.749 98.9013 135.893 98.304 135.893 97.6C135.893 96.896 135.755 96.2987 135.477 95.808C135.2 95.3173 134.837 94.9547 134.389 94.72C133.941 94.4747 133.456 94.352 132.933 94.352C132.4 94.352 131.909 94.4747 131.461 94.72C131.024 94.9547 130.672 95.3173 130.405 95.808C130.139 96.2987 130.005 96.896 130.005 97.6C130.005 98.3147 130.133 98.9173 130.389 99.408C130.656 99.8987 131.008 100.267 131.445 100.512C131.883 100.747 132.363 100.864 132.885 100.864ZM141.142 94.432V99.6C141.142 100.027 141.232 100.331 141.414 100.512C141.595 100.683 141.91 100.768 142.358 100.768H143.43V102H142.118C141.307 102 140.699 101.813 140.294 101.44C139.888 101.067 139.686 100.453 139.686 99.6V94.432H138.55V93.232H139.686V91.024H141.142V93.232H143.43V94.432H141.142ZM144.72 97.584C144.72 96.688 144.901 95.904 145.264 95.232C145.627 94.5493 146.123 94.0213 146.752 93.648C147.392 93.2747 148.101 93.088 148.88 93.088C149.648 93.088 150.315 93.2533 150.88 93.584C151.445 93.9147 151.867 94.3307 152.144 94.832V93.232H153.616V102H152.144V100.368C151.856 100.88 151.424 101.307 150.848 101.648C150.283 101.979 149.621 102.144 148.864 102.144C148.085 102.144 147.381 101.952 146.752 101.568C146.123 101.184 145.627 100.645 145.264 99.952C144.901 99.2587 144.72 98.4693 144.72 97.584ZM152.144 97.6C152.144 96.9387 152.011 96.3627 151.744 95.872C151.477 95.3813 151.115 95.008 150.656 94.752C150.208 94.4853 149.712 94.352 149.168 94.352C148.624 94.352 148.128 94.48 147.68 94.736C147.232 94.992 146.875 95.3653 146.608 95.856C146.341 96.3467 146.208 96.9227 146.208 97.584C146.208 98.256 146.341 98.8427 146.608 99.344C146.875 99.8347 147.232 100.213 147.68 100.48C148.128 100.736 148.624 100.864 149.168 100.864C149.712 100.864 150.208 100.736 150.656 100.48C151.115 100.213 151.477 99.8347 151.744 99.344C152.011 98.8427 152.144 98.2613 152.144 97.6ZM157.602 90.16V102H156.146V90.16H157.602ZM165.945 100.816H169.85V102H164.489V90.848H165.945V100.816ZM172.218 91.808C171.94 91.808 171.706 91.712 171.514 91.52C171.322 91.328 171.226 91.0933 171.226 90.816C171.226 90.5387 171.322 90.304 171.514 90.112C171.706 89.92 171.94 89.824 172.218 89.824C172.484 89.824 172.708 89.92 172.89 90.112C173.082 90.304 173.178 90.5387 173.178 90.816C173.178 91.0933 173.082 91.328 172.89 91.52C172.708 91.712 172.484 91.808 172.218 91.808ZM172.922 93.232V102H171.466V93.232H172.922ZM180.369 102L176.929 98.128V102H175.473V90.16H176.929V97.12L180.305 93.232H182.337L178.209 97.6L182.353 102H180.369ZM191.778 97.28C191.778 97.5573 191.762 97.8507 191.73 98.16H184.722C184.775 99.024 185.068 99.7013 185.602 100.192C186.146 100.672 186.802 100.912 187.57 100.912C188.199 100.912 188.722 100.768 189.138 100.48C189.564 100.181 189.863 99.7867 190.034 99.296H191.602C191.367 100.139 190.898 100.827 190.194 101.36C189.49 101.883 188.615 102.144 187.57 102.144C186.738 102.144 185.991 101.957 185.33 101.584C184.679 101.211 184.167 100.683 183.794 100C183.42 99.3067 183.234 98.5067 183.234 97.6C183.234 96.6933 183.415 95.8987 183.778 95.216C184.14 94.5333 184.647 94.0107 185.298 93.648C185.959 93.2747 186.716 93.088 187.57 93.088C188.402 93.088 189.138 93.2693 189.778 93.632C190.418 93.9947 190.908 94.496 191.25 95.136C191.602 95.7653 191.778 96.48 191.778 97.28ZM190.274 96.976C190.274 96.4213 190.151 95.9467 189.906 95.552C189.66 95.1467 189.324 94.8427 188.898 94.64C188.482 94.4267 188.018 94.32 187.506 94.32C186.77 94.32 186.14 94.5547 185.618 95.024C185.106 95.4933 184.812 96.144 184.738 96.976H190.274ZM196.873 102.144C196.201 102.144 195.599 102.032 195.065 101.808C194.532 101.573 194.111 101.253 193.801 100.848C193.492 100.432 193.321 99.9573 193.289 99.424H194.793C194.836 99.8613 195.039 100.219 195.401 100.496C195.775 100.773 196.26 100.912 196.857 100.912C197.412 100.912 197.849 100.789 198.169 100.544C198.489 100.299 198.649 99.9893 198.649 99.616C198.649 99.232 198.479 98.9493 198.137 98.768C197.796 98.576 197.268 98.3893 196.553 98.208C195.903 98.0373 195.369 97.8667 194.953 97.696C194.548 97.5147 194.196 97.2533 193.897 96.912C193.609 96.56 193.465 96.1013 193.465 95.536C193.465 95.088 193.599 94.6773 193.865 94.304C194.132 93.9307 194.511 93.6373 195.001 93.424C195.492 93.2 196.052 93.088 196.681 93.088C197.652 93.088 198.436 93.3333 199.033 93.824C199.631 94.3147 199.951 94.9867 199.993 95.84H198.537C198.505 95.3813 198.319 95.0133 197.977 94.736C197.647 94.4587 197.199 94.32 196.633 94.32C196.111 94.32 195.695 94.432 195.385 94.656C195.076 94.88 194.921 95.1733 194.921 95.536C194.921 95.824 195.012 96.064 195.193 96.256C195.385 96.4373 195.62 96.5867 195.897 96.704C196.185 96.8107 196.58 96.9333 197.081 97.072C197.711 97.2427 198.223 97.4133 198.617 97.584C199.012 97.744 199.348 97.9893 199.625 98.32C199.913 98.6507 200.063 99.0827 200.073 99.616C200.073 100.096 199.94 100.528 199.673 100.912C199.407 101.296 199.028 101.6 198.537 101.824C198.057 102.037 197.503 102.144 196.873 102.144Z" fill="#704E0D"/>
<path d="M152.868 111.696H147.252V115.344C147.497 115.003 147.86 114.725 148.34 114.512C148.82 114.288 149.337 114.176 149.892 114.176C150.777 114.176 151.497 114.363 152.052 114.736C152.607 115.099 153.001 115.573 153.236 116.16C153.481 116.736 153.604 117.349 153.604 118C153.604 118.768 153.46 119.456 153.172 120.064C152.884 120.672 152.441 121.152 151.844 121.504C151.257 121.856 150.527 122.032 149.652 122.032C148.532 122.032 147.625 121.744 146.932 121.168C146.239 120.592 145.817 119.824 145.668 118.864H147.092C147.231 119.472 147.524 119.947 147.972 120.288C148.42 120.629 148.985 120.8 149.668 120.8C150.511 120.8 151.145 120.549 151.572 120.048C151.999 119.536 152.212 118.864 152.212 118.032C152.212 117.2 151.999 116.56 151.572 116.112C151.145 115.653 150.516 115.424 149.684 115.424C149.119 115.424 148.623 115.563 148.196 115.84C147.78 116.107 147.476 116.475 147.284 116.944H145.908V110.416H152.868V111.696ZM155.609 116.096C155.609 114.261 155.908 112.832 156.505 111.808C157.103 110.773 158.148 110.256 159.641 110.256C161.124 110.256 162.164 110.773 162.761 111.808C163.359 112.832 163.657 114.261 163.657 116.096C163.657 117.963 163.359 119.413 162.761 120.448C162.164 121.483 161.124 122 159.641 122C158.148 122 157.103 121.483 156.505 120.448C155.908 119.413 155.609 117.963 155.609 116.096ZM162.217 116.096C162.217 115.168 162.153 114.384 162.025 113.744C161.908 113.093 161.657 112.571 161.273 112.176C160.9 111.781 160.356 111.584 159.641 111.584C158.916 111.584 158.361 111.781 157.977 112.176C157.604 112.571 157.353 113.093 157.225 113.744C157.108 114.384 157.049 115.168 157.049 116.096C157.049 117.056 157.108 117.861 157.225 118.512C157.353 119.163 157.604 119.685 157.977 120.08C158.361 120.475 158.916 120.672 159.641 120.672C160.356 120.672 160.9 120.475 161.273 120.08C161.657 119.685 161.908 119.163 162.025 118.512C162.153 117.861 162.217 117.056 162.217 116.096ZM165.727 116.096C165.727 114.261 166.025 112.832 166.623 111.808C167.22 110.773 168.265 110.256 169.759 110.256C171.241 110.256 172.281 110.773 172.879 111.808C173.476 112.832 173.775 114.261 173.775 116.096C173.775 117.963 173.476 119.413 172.879 120.448C172.281 121.483 171.241 122 169.759 122C168.265 122 167.22 121.483 166.623 120.448C166.025 119.413 165.727 117.963 165.727 116.096ZM172.335 116.096C172.335 115.168 172.271 114.384 172.143 113.744C172.025 113.093 171.775 112.571 171.391 112.176C171.017 111.781 170.473 111.584 169.759 111.584C169.033 111.584 168.479 111.781 168.095 112.176C167.721 112.571 167.471 113.093 167.343 113.744C167.225 114.384 167.167 115.168 167.167 116.096C167.167 117.056 167.225 117.861 167.343 118.512C167.471 119.163 167.721 119.685 168.095 120.08C168.479 120.475 169.033 120.672 169.759 120.672C170.473 120.672 171.017 120.475 171.391 120.08C171.775 119.685 172.025 119.163 172.143 118.512C172.271 117.861 172.335 117.056 172.335 116.096Z" fill="#704E0D"/>
<path d="M291.824 101.02H286.96L286.064 103.5H284.528L288.56 92.412H290.24L294.256 103.5H292.72L291.824 101.02ZM291.408 99.836L289.392 94.204L287.376 99.836H291.408ZM297.54 91.66V103.5H296.084V91.66H297.54ZM301.548 91.66V103.5H300.092V91.66H301.548ZM307.891 97.916C307.891 96.828 308.137 95.852 308.627 94.988C309.118 94.1133 309.785 93.4307 310.627 92.94C311.481 92.4493 312.425 92.204 313.459 92.204C314.675 92.204 315.737 92.4973 316.643 93.084C317.55 93.6707 318.211 94.5027 318.627 95.58H316.883C316.574 94.908 316.126 94.3907 315.539 94.028C314.963 93.6653 314.27 93.484 313.459 93.484C312.681 93.484 311.982 93.6653 311.363 94.028C310.745 94.3907 310.259 94.908 309.907 95.58C309.555 96.2413 309.379 97.02 309.379 97.916C309.379 98.8013 309.555 99.58 309.907 100.252C310.259 100.913 310.745 101.425 311.363 101.788C311.982 102.151 312.681 102.332 313.459 102.332C314.27 102.332 314.963 102.156 315.539 101.804C316.126 101.441 316.574 100.924 316.883 100.252H318.627C318.211 101.319 317.55 102.145 316.643 102.732C315.737 103.308 314.675 103.596 313.459 103.596C312.425 103.596 311.481 103.356 310.627 102.876C309.785 102.385 309.118 101.708 308.627 100.844C308.137 99.98 307.891 99.004 307.891 97.916ZM320.321 99.084C320.321 98.188 320.503 97.404 320.865 96.732C321.228 96.0493 321.724 95.5213 322.353 95.148C322.993 94.7747 323.703 94.588 324.481 94.588C325.249 94.588 325.916 94.7533 326.481 95.084C327.047 95.4147 327.468 95.8307 327.745 96.332V94.732H329.217V103.5H327.745V101.868C327.457 102.38 327.025 102.807 326.449 103.148C325.884 103.479 325.223 103.644 324.465 103.644C323.687 103.644 322.983 103.452 322.353 103.068C321.724 102.684 321.228 102.145 320.865 101.452C320.503 100.759 320.321 99.9693 320.321 99.084ZM327.745 99.1C327.745 98.4387 327.612 97.8627 327.345 97.372C327.079 96.8813 326.716 96.508 326.257 96.252C325.809 95.9853 325.313 95.852 324.769 95.852C324.225 95.852 323.729 95.98 323.281 96.236C322.833 96.492 322.476 96.8653 322.209 97.356C321.943 97.8467 321.809 98.4227 321.809 99.084C321.809 99.756 321.943 100.343 322.209 100.844C322.476 101.335 322.833 101.713 323.281 101.98C323.729 102.236 324.225 102.364 324.769 102.364C325.313 102.364 325.809 102.236 326.257 101.98C326.716 101.713 327.079 101.335 327.345 100.844C327.612 100.343 327.745 99.7613 327.745 99.1ZM333.524 95.932V101.1C333.524 101.527 333.615 101.831 333.796 102.012C333.977 102.183 334.292 102.268 334.74 102.268H335.812V103.5H334.5C333.689 103.5 333.081 103.313 332.676 102.94C332.271 102.567 332.068 101.953 332.068 101.1V95.932H330.932V94.732H332.068V92.524H333.524V94.732H335.812V95.932H333.524ZM345.647 98.78C345.647 99.0573 345.631 99.3507 345.599 99.66H338.591C338.644 100.524 338.937 101.201 339.471 101.692C340.015 102.172 340.671 102.412 341.439 102.412C342.068 102.412 342.591 102.268 343.007 101.98C343.433 101.681 343.732 101.287 343.903 100.796H345.471C345.236 101.639 344.767 102.327 344.063 102.86C343.359 103.383 342.484 103.644 341.439 103.644C340.607 103.644 339.86 103.457 339.199 103.084C338.548 102.711 338.036 102.183 337.663 101.5C337.289 100.807 337.103 100.007 337.103 99.1C337.103 98.1933 337.284 97.3987 337.647 96.716C338.009 96.0333 338.516 95.5107 339.167 95.148C339.828 94.7747 340.585 94.588 341.439 94.588C342.271 94.588 343.007 94.7693 343.647 95.132C344.287 95.4947 344.777 95.996 345.119 96.636C345.471 97.2653 345.647 97.98 345.647 98.78ZM344.143 98.476C344.143 97.9213 344.02 97.4467 343.775 97.052C343.529 96.6467 343.193 96.3427 342.767 96.14C342.351 95.9267 341.887 95.82 341.375 95.82C340.639 95.82 340.009 96.0547 339.487 96.524C338.975 96.9933 338.681 97.644 338.607 98.476H344.143ZM351.255 94.588C352.012 94.588 352.673 94.7533 353.239 95.084C353.815 95.4147 354.241 95.8307 354.519 96.332V94.732H355.991V103.692C355.991 104.492 355.82 105.201 355.479 105.82C355.137 106.449 354.647 106.94 354.007 107.292C353.377 107.644 352.641 107.82 351.799 107.82C350.647 107.82 349.687 107.548 348.919 107.004C348.151 106.46 347.697 105.719 347.559 104.78H348.999C349.159 105.313 349.489 105.74 349.991 106.06C350.492 106.391 351.095 106.556 351.799 106.556C352.599 106.556 353.249 106.305 353.751 105.804C354.263 105.303 354.519 104.599 354.519 103.692V101.852C354.231 102.364 353.804 102.791 353.239 103.132C352.673 103.473 352.012 103.644 351.255 103.644C350.476 103.644 349.767 103.452 349.127 103.068C348.497 102.684 348.001 102.145 347.639 101.452C347.276 100.759 347.095 99.9693 347.095 99.084C347.095 98.188 347.276 97.404 347.639 96.732C348.001 96.0493 348.497 95.5213 349.127 95.148C349.767 94.7747 350.476 94.588 351.255 94.588ZM354.519 99.1C354.519 98.4387 354.385 97.8627 354.119 97.372C353.852 96.8813 353.489 96.508 353.031 96.252C352.583 95.9853 352.087 95.852 351.543 95.852C350.999 95.852 350.503 95.98 350.055 96.236C349.607 96.492 349.249 96.8653 348.983 97.356C348.716 97.8467 348.583 98.4227 348.583 99.084C348.583 99.756 348.716 100.343 348.983 100.844C349.249 101.335 349.607 101.713 350.055 101.98C350.503 102.236 350.999 102.364 351.543 102.364C352.087 102.364 352.583 102.236 353.031 101.98C353.489 101.713 353.852 101.335 354.119 100.844C354.385 100.343 354.519 99.7613 354.519 99.1ZM362.346 103.644C361.524 103.644 360.778 103.457 360.106 103.084C359.444 102.711 358.922 102.183 358.538 101.5C358.164 100.807 357.978 100.007 357.978 99.1C357.978 98.204 358.17 97.4147 358.554 96.732C358.948 96.0387 359.482 95.5107 360.154 95.148C360.826 94.7747 361.578 94.588 362.41 94.588C363.242 94.588 363.994 94.7747 364.666 95.148C365.338 95.5107 365.866 96.0333 366.25 96.716C366.644 97.3987 366.842 98.1933 366.842 99.1C366.842 100.007 366.639 100.807 366.234 101.5C365.839 102.183 365.3 102.711 364.618 103.084C363.935 103.457 363.178 103.644 362.346 103.644ZM362.346 102.364C362.868 102.364 363.359 102.241 363.818 101.996C364.276 101.751 364.644 101.383 364.922 100.892C365.21 100.401 365.354 99.804 365.354 99.1C365.354 98.396 365.215 97.7987 364.938 97.308C364.66 96.8173 364.298 96.4547 363.85 96.22C363.402 95.9747 362.916 95.852 362.394 95.852C361.86 95.852 361.37 95.9747 360.922 96.22C360.484 96.4547 360.132 96.8173 359.866 97.308C359.599 97.7987 359.466 98.396 359.466 99.1C359.466 99.8147 359.594 100.417 359.85 100.908C360.116 101.399 360.468 101.767 360.906 102.012C361.343 102.247 361.823 102.364 362.346 102.364ZM370.282 96.156C370.538 95.6547 370.901 95.2653 371.37 94.988C371.85 94.7107 372.432 94.572 373.114 94.572V96.076H372.73C371.098 96.076 370.282 96.9613 370.282 98.732V103.5H368.826V94.732H370.282V96.156ZM375.618 93.308C375.34 93.308 375.106 93.212 374.914 93.02C374.722 92.828 374.626 92.5933 374.626 92.316C374.626 92.0387 374.722 91.804 374.914 91.612C375.106 91.42 375.34 91.324 375.618 91.324C375.884 91.324 376.108 91.42 376.29 91.612C376.482 91.804 376.578 92.0387 376.578 92.316C376.578 92.5933 376.482 92.828 376.29 93.02C376.108 93.212 375.884 93.308 375.618 93.308ZM376.322 94.732V103.5H374.866V94.732H376.322ZM386.873 98.78C386.873 99.0573 386.857 99.3507 386.825 99.66H379.817C379.871 100.524 380.164 101.201 380.697 101.692C381.241 102.172 381.897 102.412 382.665 102.412C383.295 102.412 383.817 102.268 384.233 101.98C384.66 101.681 384.959 101.287 385.129 100.796H386.697C386.463 101.639 385.993 102.327 385.289 102.86C384.585 103.383 383.711 103.644 382.665 103.644C381.833 103.644 381.087 103.457 380.425 103.084C379.775 102.711 379.263 102.183 378.889 101.5C378.516 100.807 378.329 100.007 378.329 99.1C378.329 98.1933 378.511 97.3987 378.873 96.716C379.236 96.0333 379.743 95.5107 380.393 95.148C381.055 94.7747 381.812 94.588 382.665 94.588C383.497 94.588 384.233 94.7693 384.873 95.132C385.513 95.4947 386.004 95.996 386.345 96.636C386.697 97.2653 386.873 97.98 386.873 98.78ZM385.369 98.476C385.369 97.9213 385.247 97.4467 385.001 97.052C384.756 96.6467 384.42 96.3427 383.993 96.14C383.577 95.9267 383.113 95.82 382.601 95.82C381.865 95.82 381.236 96.0547 380.713 96.524C380.201 96.9933 379.908 97.644 379.833 98.476H385.369ZM391.97 103.644C391.298 103.644 390.695 103.532 390.162 103.308C389.628 103.073 389.207 102.753 388.898 102.348C388.588 101.932 388.418 101.457 388.386 100.924H389.89C389.932 101.361 390.135 101.719 390.498 101.996C390.871 102.273 391.356 102.412 391.954 102.412C392.508 102.412 392.946 102.289 393.266 102.044C393.586 101.799 393.746 101.489 393.746 101.116C393.746 100.732 393.575 100.449 393.234 100.268C392.892 100.076 392.364 99.8893 391.65 99.708C390.999 99.5373 390.466 99.3667 390.05 99.196C389.644 99.0147 389.292 98.7533 388.994 98.412C388.706 98.06 388.562 97.6013 388.562 97.036C388.562 96.588 388.695 96.1773 388.962 95.804C389.228 95.4307 389.607 95.1373 390.098 94.924C390.588 94.7 391.148 94.588 391.778 94.588C392.748 94.588 393.532 94.8333 394.13 95.324C394.727 95.8147 395.047 96.4867 395.09 97.34H393.634C393.602 96.8813 393.415 96.5133 393.074 96.236C392.743 95.9587 392.295 95.82 391.73 95.82C391.207 95.82 390.791 95.932 390.482 96.156C390.172 96.38 390.018 96.6733 390.018 97.036C390.018 97.324 390.108 97.564 390.29 97.756C390.482 97.9373 390.716 98.0867 390.994 98.204C391.282 98.3107 391.676 98.4333 392.178 98.572C392.807 98.7427 393.319 98.9133 393.714 99.084C394.108 99.244 394.444 99.4893 394.722 99.82C395.01 100.151 395.159 100.583 395.17 101.116C395.17 101.596 395.036 102.028 394.77 102.412C394.503 102.796 394.124 103.1 393.634 103.324C393.154 103.537 392.599 103.644 391.97 103.644Z" fill="#704E0D"/>
<path d="M332.868 113.196H327.252V116.844C327.497 116.503 327.86 116.225 328.34 116.012C328.82 115.788 329.337 115.676 329.892 115.676C330.777 115.676 331.497 115.863 332.052 116.236C332.607 116.599 333.001 117.073 333.236 117.66C333.481 118.236 333.604 118.849 333.604 119.5C333.604 120.268 333.46 120.956 333.172 121.564C332.884 122.172 332.441 122.652 331.844 123.004C331.257 123.356 330.527 123.532 329.652 123.532C328.532 123.532 327.625 123.244 326.932 122.668C326.239 122.092 325.817 121.324 325.668 120.364H327.092C327.231 120.972 327.524 121.447 327.972 121.788C328.42 122.129 328.985 122.3 329.668 122.3C330.511 122.3 331.145 122.049 331.572 121.548C331.999 121.036 332.212 120.364 332.212 119.532C332.212 118.7 331.999 118.06 331.572 117.612C331.145 117.153 330.516 116.924 329.684 116.924C329.119 116.924 328.623 117.063 328.196 117.34C327.78 117.607 327.476 117.975 327.284 118.444H325.908V111.916H332.868V113.196ZM335.609 117.596C335.609 115.761 335.908 114.332 336.505 113.308C337.103 112.273 338.148 111.756 339.641 111.756C341.124 111.756 342.164 112.273 342.761 113.308C343.359 114.332 343.657 115.761 343.657 117.596C343.657 119.463 343.359 120.913 342.761 121.948C342.164 122.983 341.124 123.5 339.641 123.5C338.148 123.5 337.103 122.983 336.505 121.948C335.908 120.913 335.609 119.463 335.609 117.596ZM342.217 117.596C342.217 116.668 342.153 115.884 342.025 115.244C341.908 114.593 341.657 114.071 341.273 113.676C340.9 113.281 340.356 113.084 339.641 113.084C338.916 113.084 338.361 113.281 337.977 113.676C337.604 114.071 337.353 114.593 337.225 115.244C337.108 115.884 337.049 116.668 337.049 117.596C337.049 118.556 337.108 119.361 337.225 120.012C337.353 120.663 337.604 121.185 337.977 121.58C338.361 121.975 338.916 122.172 339.641 122.172C340.356 122.172 340.9 121.975 341.273 121.58C341.657 121.185 341.908 120.663 342.025 120.012C342.153 119.361 342.217 118.556 342.217 117.596ZM345.727 117.596C345.727 115.761 346.025 114.332 346.623 113.308C347.22 112.273 348.265 111.756 349.759 111.756C351.241 111.756 352.281 112.273 352.879 113.308C353.476 114.332 353.775 115.761 353.775 117.596C353.775 119.463 353.476 120.913 352.879 121.948C352.281 122.983 351.241 123.5 349.759 123.5C348.265 123.5 347.22 122.983 346.623 121.948C346.025 120.913 345.727 119.463 345.727 117.596ZM352.335 117.596C352.335 116.668 352.271 115.884 352.143 115.244C352.025 114.593 351.775 114.071 351.391 113.676C351.017 113.281 350.473 113.084 349.759 113.084C349.033 113.084 348.479 113.281 348.095 113.676C347.721 114.071 347.471 114.593 347.343 115.244C347.225 115.884 347.167 116.668 347.167 117.596C347.167 118.556 347.225 119.361 347.343 120.012C347.471 120.663 347.721 121.185 348.095 121.58C348.479 121.975 349.033 122.172 349.759 122.172C350.473 122.172 351.017 121.975 351.391 121.58C351.775 121.185 352.025 120.663 352.143 120.012C352.271 119.361 352.335 118.556 352.335 117.596Z" fill="#704E0D"/>
<path d="M407.889 85.5092C410.05 84.8572 411.283 82.5726 410.514 80.4511C405.38 66.2791 396.079 53.9499 383.791 45.1119C370.394 35.477 354.194 30.5292 337.7 31.0353C321.206 31.5413 305.34 37.4729 292.559 47.9109C279.778 58.349 270.796 72.7108 267.006 88.771C263.215 104.831 264.827 121.693 271.591 136.745C278.356 151.796 289.895 164.197 304.422 172.024C318.949 179.852 335.652 182.671 351.943 180.043C366.886 177.633 380.718 170.763 391.648 160.383C393.284 158.829 393.202 156.234 391.562 154.685C389.921 153.136 387.344 153.22 385.697 154.763C376.009 163.842 363.81 169.852 350.642 171.976C336.126 174.317 321.242 171.806 308.298 164.831C295.354 157.856 285.072 146.807 279.044 133.395C273.017 119.984 271.581 104.959 274.959 90.6481C278.336 76.3376 286.339 63.5406 297.728 54.2398C309.116 44.939 323.254 39.6536 337.951 39.2027C352.647 38.7518 367.083 43.1605 379.02 51.7457C389.849 59.5338 398.073 70.3644 402.679 82.8168C403.461 84.9332 405.729 86.1612 407.889 85.5092Z" fill="url(#paint1_linear_42_333)"/>
<path d="M393.102 152.998C394.792 154.494 397.385 154.343 398.787 152.574C405.571 144.01 410.413 134.054 412.955 123.395C415.496 112.736 415.668 101.666 413.477 90.9626C413.024 88.7509 410.779 87.4463 408.595 88.0187C406.411 88.5911 405.118 90.8237 405.556 93.0383C407.415 102.439 407.233 112.147 405.003 121.499C402.773 130.851 398.555 139.596 392.654 147.147C391.264 148.926 391.411 151.502 393.102 152.998Z" fill="#D9D9D9"/>
<path d="M483.824 99.52H478.96L478.064 102H476.528L480.56 90.912H482.24L486.256 102H484.72L483.824 99.52ZM483.408 98.336L481.392 92.704L479.376 98.336H483.408ZM489.54 90.16V102H488.084V90.16H489.54ZM493.548 90.16V102H492.092V90.16H493.548ZM501.891 90.848V102H500.435V90.848H501.891ZM514.987 93.072C515.67 93.072 516.278 93.216 516.811 93.504C517.345 93.7813 517.766 94.2027 518.075 94.768C518.385 95.3333 518.539 96.0213 518.539 96.832V102H517.099V97.04C517.099 96.1653 516.881 95.4987 516.443 95.04C516.017 94.5707 515.435 94.336 514.699 94.336C513.942 94.336 513.339 94.5813 512.891 95.072C512.443 95.552 512.219 96.2507 512.219 97.168V102H510.779V97.04C510.779 96.1653 510.561 95.4987 510.123 95.04C509.697 94.5707 509.115 94.336 508.379 94.336C507.622 94.336 507.019 94.5813 506.571 95.072C506.123 95.552 505.899 96.2507 505.899 97.168V102H504.443V93.232H505.899V94.496C506.187 94.0373 506.571 93.6853 507.051 93.44C507.542 93.1947 508.081 93.072 508.667 93.072C509.403 93.072 510.054 93.2373 510.619 93.568C511.185 93.8987 511.606 94.384 511.883 95.024C512.129 94.4053 512.534 93.9253 513.099 93.584C513.665 93.2427 514.294 93.072 514.987 93.072ZM520.454 97.584C520.454 96.688 520.635 95.904 520.998 95.232C521.361 94.5493 521.857 94.0213 522.486 93.648C523.126 93.2747 523.835 93.088 524.614 93.088C525.382 93.088 526.049 93.2533 526.614 93.584C527.179 93.9147 527.601 94.3307 527.878 94.832V93.232H529.35V102H527.878V100.368C527.59 100.88 527.158 101.307 526.582 101.648C526.017 101.979 525.355 102.144 524.598 102.144C523.819 102.144 523.115 101.952 522.486 101.568C521.857 101.184 521.361 100.645 520.998 99.952C520.635 99.2587 520.454 98.4693 520.454 97.584ZM527.878 97.6C527.878 96.9387 527.745 96.3627 527.478 95.872C527.211 95.3813 526.849 95.008 526.39 94.752C525.942 94.4853 525.446 94.352 524.902 94.352C524.358 94.352 523.862 94.48 523.414 94.736C522.966 94.992 522.609 95.3653 522.342 95.856C522.075 96.3467 521.942 96.9227 521.942 97.584C521.942 98.256 522.075 98.8427 522.342 99.344C522.609 99.8347 522.966 100.213 523.414 100.48C523.862 100.736 524.358 100.864 524.902 100.864C525.446 100.864 525.942 100.736 526.39 100.48C526.849 100.213 527.211 99.8347 527.478 99.344C527.745 98.8427 527.878 98.2613 527.878 97.6ZM535.497 93.088C536.254 93.088 536.916 93.2533 537.481 93.584C538.057 93.9147 538.484 94.3307 538.761 94.832V93.232H540.233V102.192C540.233 102.992 540.062 103.701 539.721 104.32C539.38 104.949 538.889 105.44 538.249 105.792C537.62 106.144 536.884 106.32 536.041 106.32C534.889 106.32 533.929 106.048 533.161 105.504C532.393 104.96 531.94 104.219 531.801 103.28H533.241C533.401 103.813 533.732 104.24 534.233 104.56C534.734 104.891 535.337 105.056 536.041 105.056C536.841 105.056 537.492 104.805 537.993 104.304C538.505 103.803 538.761 103.099 538.761 102.192V100.352C538.473 100.864 538.046 101.291 537.481 101.632C536.916 101.973 536.254 102.144 535.497 102.144C534.718 102.144 534.009 101.952 533.369 101.568C532.74 101.184 532.244 100.645 531.881 99.952C531.518 99.2587 531.337 98.4693 531.337 97.584C531.337 96.688 531.518 95.904 531.881 95.232C532.244 94.5493 532.74 94.0213 533.369 93.648C534.009 93.2747 534.718 93.088 535.497 93.088ZM538.761 97.6C538.761 96.9387 538.628 96.3627 538.361 95.872C538.094 95.3813 537.732 95.008 537.273 94.752C536.825 94.4853 536.329 94.352 535.785 94.352C535.241 94.352 534.745 94.48 534.297 94.736C533.849 94.992 533.492 95.3653 533.225 95.856C532.958 96.3467 532.825 96.9227 532.825 97.584C532.825 98.256 532.958 98.8427 533.225 99.344C533.492 99.8347 533.849 100.213 534.297 100.48C534.745 100.736 535.241 100.864 535.785 100.864C536.329 100.864 536.825 100.736 537.273 100.48C537.732 100.213 538.094 99.8347 538.361 99.344C538.628 98.8427 538.761 98.2613 538.761 97.6ZM550.764 97.28C550.764 97.5573 550.748 97.8507 550.716 98.16H543.708C543.761 99.024 544.054 99.7013 544.588 100.192C545.132 100.672 545.788 100.912 546.556 100.912C547.185 100.912 547.708 100.768 548.124 100.48C548.55 100.181 548.849 99.7867 549.02 99.296H550.588C550.353 100.139 549.884 100.827 549.18 101.36C548.476 101.883 547.601 102.144 546.556 102.144C545.724 102.144 544.977 101.957 544.316 101.584C543.665 101.211 543.153 100.683 542.78 100C542.406 99.3067 542.22 98.5067 542.22 97.6C542.22 96.6933 542.401 95.8987 542.764 95.216C543.126 94.5333 543.633 94.0107 544.284 93.648C544.945 93.2747 545.702 93.088 546.556 93.088C547.388 93.088 548.124 93.2693 548.764 93.632C549.404 93.9947 549.894 94.496 550.236 95.136C550.588 95.7653 550.764 96.48 550.764 97.28ZM549.26 96.976C549.26 96.4213 549.137 95.9467 548.892 95.552C548.646 95.1467 548.31 94.8427 547.884 94.64C547.468 94.4267 547.004 94.32 546.492 94.32C545.756 94.32 545.126 94.5547 544.604 95.024C544.092 95.4933 543.798 96.144 543.724 96.976H549.26ZM555.86 102.144C555.188 102.144 554.585 102.032 554.052 101.808C553.519 101.573 553.097 101.253 552.788 100.848C552.479 100.432 552.308 99.9573 552.276 99.424H553.78C553.823 99.8613 554.025 100.219 554.388 100.496C554.761 100.773 555.247 100.912 555.844 100.912C556.399 100.912 556.836 100.789 557.156 100.544C557.476 100.299 557.636 99.9893 557.636 99.616C557.636 99.232 557.465 98.9493 557.124 98.768C556.783 98.576 556.255 98.3893 555.54 98.208C554.889 98.0373 554.356 97.8667 553.94 97.696C553.535 97.5147 553.183 97.2533 552.884 96.912C552.596 96.56 552.452 96.1013 552.452 95.536C552.452 95.088 552.585 94.6773 552.852 94.304C553.119 93.9307 553.497 93.6373 553.988 93.424C554.479 93.2 555.039 93.088 555.668 93.088C556.639 93.088 557.423 93.3333 558.02 93.824C558.617 94.3147 558.937 94.9867 558.98 95.84H557.524C557.492 95.3813 557.305 95.0133 556.964 94.736C556.633 94.4587 556.185 94.32 555.62 94.32C555.097 94.32 554.681 94.432 554.372 94.656C554.063 94.88 553.908 95.1733 553.908 95.536C553.908 95.824 553.999 96.064 554.18 96.256C554.372 96.4373 554.607 96.5867 554.884 96.704C555.172 96.8107 555.567 96.9333 556.068 97.072C556.697 97.2427 557.209 97.4133 557.604 97.584C557.999 97.744 558.335 97.9893 558.612 98.32C558.9 98.6507 559.049 99.0827 559.06 99.616C559.06 100.096 558.927 100.528 558.66 100.912C558.393 101.296 558.015 101.6 557.524 101.824C557.044 102.037 556.489 102.144 555.86 102.144Z" fill="#704E0D"/>
<path d="M512.868 111.696H507.252V115.344C507.497 115.003 507.86 114.725 508.34 114.512C508.82 114.288 509.337 114.176 509.892 114.176C510.777 114.176 511.497 114.363 512.052 114.736C512.607 115.099 513.001 115.573 513.236 116.16C513.481 116.736 513.604 117.349 513.604 118C513.604 118.768 513.46 119.456 513.172 120.064C512.884 120.672 512.441 121.152 511.844 121.504C511.257 121.856 510.527 122.032 509.652 122.032C508.532 122.032 507.625 121.744 506.932 121.168C506.239 120.592 505.817 119.824 505.668 118.864H507.092C507.231 119.472 507.524 119.947 507.972 120.288C508.42 120.629 508.985 120.8 509.668 120.8C510.511 120.8 511.145 120.549 511.572 120.048C511.999 119.536 512.212 118.864 512.212 118.032C512.212 117.2 511.999 116.56 511.572 116.112C511.145 115.653 510.516 115.424 509.684 115.424C509.119 115.424 508.623 115.563 508.196 115.84C507.78 116.107 507.476 116.475 507.284 116.944H505.908V110.416H512.868V111.696ZM515.609 116.096C515.609 114.261 515.908 112.832 516.505 111.808C517.103 110.773 518.148 110.256 519.641 110.256C521.124 110.256 522.164 110.773 522.761 111.808C523.359 112.832 523.657 114.261 523.657 116.096C523.657 117.963 523.359 119.413 522.761 120.448C522.164 121.483 521.124 122 519.641 122C518.148 122 517.103 121.483 516.505 120.448C515.908 119.413 515.609 117.963 515.609 116.096ZM522.217 116.096C522.217 115.168 522.153 114.384 522.025 113.744C521.908 113.093 521.657 112.571 521.273 112.176C520.9 111.781 520.356 111.584 519.641 111.584C518.916 111.584 518.361 111.781 517.977 112.176C517.604 112.571 517.353 113.093 517.225 113.744C517.108 114.384 517.049 115.168 517.049 116.096C517.049 117.056 517.108 117.861 517.225 118.512C517.353 119.163 517.604 119.685 517.977 120.08C518.361 120.475 518.916 120.672 519.641 120.672C520.356 120.672 520.9 120.475 521.273 120.08C521.657 119.685 521.908 119.163 522.025 118.512C522.153 117.861 522.217 117.056 522.217 116.096ZM525.727 116.096C525.727 114.261 526.025 112.832 526.623 111.808C527.22 110.773 528.265 110.256 529.759 110.256C531.241 110.256 532.281 110.773 532.879 111.808C533.476 112.832 533.775 114.261 533.775 116.096C533.775 117.963 533.476 119.413 532.879 120.448C532.281 121.483 531.241 122 529.759 122C528.265 122 527.22 121.483 526.623 120.448C526.025 119.413 525.727 117.963 525.727 116.096ZM532.335 116.096C532.335 115.168 532.271 114.384 532.143 113.744C532.025 113.093 531.775 112.571 531.391 112.176C531.017 111.781 530.473 111.584 529.759 111.584C529.033 111.584 528.479 111.781 528.095 112.176C527.721 112.571 527.471 113.093 527.343 113.744C527.225 114.384 527.167 115.168 527.167 116.096C527.167 117.056 527.225 117.861 527.343 118.512C527.471 119.163 527.721 119.685 528.095 120.08C528.479 120.475 529.033 120.672 529.759 120.672C530.473 120.672 531.017 120.475 531.391 120.08C531.775 119.685 532.025 119.163 532.143 118.512C532.271 117.861 532.335 117.056 532.335 116.096Z" fill="#704E0D"/>
<path d="M566.049 52.0709C567.514 50.3549 567.317 47.7662 565.524 46.3966C554.86 38.2512 542.182 33.1004 528.806 31.5188C514.076 29.7771 499.159 32.4427 485.943 39.1785C472.727 45.9144 461.805 56.418 454.558 69.3612C447.312 82.3043 444.066 97.1056 445.232 111.893C446.397 126.681 451.922 140.791 461.107 152.439C470.292 164.087 482.724 172.75 496.832 177.332C510.94 181.914 526.09 182.21 540.367 178.182C553.33 174.524 565.043 167.451 574.3 157.735C575.856 156.102 575.645 153.514 573.929 152.049C572.213 150.584 569.643 150.797 568.076 152.42C559.876 160.912 549.555 167.099 538.148 170.317C525.427 173.907 511.927 173.643 499.356 169.56C486.785 165.477 475.707 157.758 467.523 147.379C459.339 137.001 454.417 124.428 453.378 111.251C452.339 98.0746 455.231 84.8859 461.688 73.353C468.145 61.82 477.877 52.4608 489.653 46.4588C501.429 40.4568 514.721 38.0816 527.847 39.6336C539.618 41.0253 550.781 45.519 560.209 52.6213C562.012 53.979 564.584 53.7868 566.049 52.0709Z" fill="url(#paint2_linear_42_333)"/>
<path d="M575.15 150.576C576.906 151.995 579.489 151.729 580.811 149.898C591.162 135.56 596.14 117.981 594.78 100.262C593.421 82.5428 585.819 65.9286 573.402 53.3379C571.816 51.7306 569.222 51.861 567.703 53.5313C566.185 55.2016 566.318 57.7786 567.893 59.3964C578.772 70.5757 585.429 85.2485 586.629 100.887C587.829 116.526 583.488 132.043 574.442 144.751C573.133 146.59 573.394 149.157 575.15 150.576Z" fill="#D9D9D9"/>
<path d="M668.824 99.52H663.96L663.064 102H661.528L665.56 90.912H667.24L671.256 102H669.72L668.824 99.52ZM668.408 98.336L666.392 92.704L664.376 98.336H668.408ZM674.54 90.16V102H673.084V90.16H674.54ZM678.548 90.16V102H677.092V90.16H678.548ZM694.651 90.848L690.443 102H688.763L684.555 90.848H686.107L689.611 100.464L693.115 90.848H694.651ZM697.07 91.808C696.793 91.808 696.558 91.712 696.366 91.52C696.174 91.328 696.078 91.0933 696.078 90.816C696.078 90.5387 696.174 90.304 696.366 90.112C696.558 89.92 696.793 89.824 697.07 89.824C697.337 89.824 697.561 89.92 697.742 90.112C697.934 90.304 698.03 90.5387 698.03 90.816C698.03 91.0933 697.934 91.328 697.742 91.52C697.561 91.712 697.337 91.808 697.07 91.808ZM697.774 93.232V102H696.318V93.232H697.774ZM699.782 97.584C699.782 96.688 699.964 95.904 700.326 95.232C700.689 94.5493 701.185 94.0213 701.814 93.648C702.454 93.2747 703.169 93.088 703.958 93.088C704.641 93.088 705.276 93.248 705.862 93.568C706.449 93.8773 706.897 94.288 707.206 94.8V90.16H708.678V102H707.206V100.352C706.918 100.875 706.492 101.307 705.926 101.648C705.361 101.979 704.7 102.144 703.942 102.144C703.164 102.144 702.454 101.952 701.814 101.568C701.185 101.184 700.689 100.645 700.326 99.952C699.964 99.2587 699.782 98.4693 699.782 97.584ZM707.206 97.6C707.206 96.9387 707.073 96.3627 706.806 95.872C706.54 95.3813 706.177 95.008 705.718 94.752C705.27 94.4853 704.774 94.352 704.23 94.352C703.686 94.352 703.19 94.48 702.742 94.736C702.294 94.992 701.937 95.3653 701.67 95.856C701.404 96.3467 701.27 96.9227 701.27 97.584C701.27 98.256 701.404 98.8427 701.67 99.344C701.937 99.8347 702.294 100.213 702.742 100.48C703.19 100.736 703.686 100.864 704.23 100.864C704.774 100.864 705.27 100.736 705.718 100.48C706.177 100.213 706.54 99.8347 706.806 99.344C707.073 98.8427 707.206 98.2613 707.206 97.6ZM719.209 97.28C719.209 97.5573 719.193 97.8507 719.161 98.16H712.153C712.206 99.024 712.5 99.7013 713.033 100.192C713.577 100.672 714.233 100.912 715.001 100.912C715.63 100.912 716.153 100.768 716.569 100.48C716.996 100.181 717.294 99.7867 717.465 99.296H719.033C718.798 100.139 718.329 100.827 717.625 101.36C716.921 101.883 716.046 102.144 715.001 102.144C714.169 102.144 713.422 101.957 712.761 101.584C712.11 101.211 711.598 100.683 711.225 100C710.852 99.3067 710.665 98.5067 710.665 97.6C710.665 96.6933 710.846 95.8987 711.209 95.216C711.572 94.5333 712.078 94.0107 712.729 93.648C713.39 93.2747 714.148 93.088 715.001 93.088C715.833 93.088 716.569 93.2693 717.209 93.632C717.849 93.9947 718.34 94.496 718.681 95.136C719.033 95.7653 719.209 96.48 719.209 97.28ZM717.705 96.976C717.705 96.4213 717.582 95.9467 717.337 95.552C717.092 95.1467 716.756 94.8427 716.329 94.64C715.913 94.4267 715.449 94.32 714.937 94.32C714.201 94.32 713.572 94.5547 713.049 95.024C712.537 95.4933 712.244 96.144 712.169 96.976H717.705ZM725.025 102.144C724.204 102.144 723.457 101.957 722.785 101.584C722.124 101.211 721.601 100.683 721.217 100C720.844 99.3067 720.657 98.5067 720.657 97.6C720.657 96.704 720.849 95.9147 721.233 95.232C721.628 94.5387 722.161 94.0107 722.833 93.648C723.505 93.2747 724.257 93.088 725.089 93.088C725.921 93.088 726.673 93.2747 727.345 93.648C728.017 94.0107 728.545 94.5333 728.929 95.216C729.324 95.8987 729.521 96.6933 729.521 97.6C729.521 98.5067 729.319 99.3067 728.913 100C728.519 100.683 727.98 101.211 727.297 101.584C726.615 101.957 725.857 102.144 725.025 102.144ZM725.025 100.864C725.548 100.864 726.039 100.741 726.497 100.496C726.956 100.251 727.324 99.8827 727.601 99.392C727.889 98.9013 728.033 98.304 728.033 97.6C728.033 96.896 727.895 96.2987 727.617 95.808C727.34 95.3173 726.977 94.9547 726.529 94.72C726.081 94.4747 725.596 94.352 725.073 94.352C724.54 94.352 724.049 94.4747 723.601 94.72C723.164 94.9547 722.812 95.3173 722.545 95.808C722.279 96.2987 722.145 96.896 722.145 97.6C722.145 98.3147 722.273 98.9173 722.529 99.408C722.796 99.8987 723.148 100.267 723.585 100.512C724.023 100.747 724.503 100.864 725.025 100.864ZM734.61 102.144C733.938 102.144 733.335 102.032 732.802 101.808C732.269 101.573 731.847 101.253 731.538 100.848C731.229 100.432 731.058 99.9573 731.026 99.424H732.53C732.573 99.8613 732.775 100.219 733.138 100.496C733.511 100.773 733.997 100.912 734.594 100.912C735.149 100.912 735.586 100.789 735.906 100.544C736.226 100.299 736.386 99.9893 736.386 99.616C736.386 99.232 736.215 98.9493 735.874 98.768C735.533 98.576 735.005 98.3893 734.29 98.208C733.639 98.0373 733.106 97.8667 732.69 97.696C732.285 97.5147 731.933 97.2533 731.634 96.912C731.346 96.56 731.202 96.1013 731.202 95.536C731.202 95.088 731.335 94.6773 731.602 94.304C731.869 93.9307 732.247 93.6373 732.738 93.424C733.229 93.2 733.789 93.088 734.418 93.088C735.389 93.088 736.173 93.3333 736.77 93.824C737.367 94.3147 737.687 94.9867 737.73 95.84H736.274C736.242 95.3813 736.055 95.0133 735.714 94.736C735.383 94.4587 734.935 94.32 734.37 94.32C733.847 94.32 733.431 94.432 733.122 94.656C732.813 94.88 732.658 95.1733 732.658 95.536C732.658 95.824 732.749 96.064 732.93 96.256C733.122 96.4373 733.357 96.5867 733.634 96.704C733.922 96.8107 734.317 96.9333 734.818 97.072C735.447 97.2427 735.959 97.4133 736.354 97.584C736.749 97.744 737.085 97.9893 737.362 98.32C737.65 98.6507 737.799 99.0827 737.81 99.616C737.81 100.096 737.677 100.528 737.41 100.912C737.143 101.296 736.765 101.6 736.274 101.824C735.794 102.037 735.239 102.144 734.61 102.144Z" fill="#704E0D"/>
<path d="M692.868 111.696H687.252V115.344C687.497 115.003 687.86 114.725 688.34 114.512C688.82 114.288 689.337 114.176 689.892 114.176C690.777 114.176 691.497 114.363 692.052 114.736C692.607 115.099 693.001 115.573 693.236 116.16C693.481 116.736 693.604 117.349 693.604 118C693.604 118.768 693.46 119.456 693.172 120.064C692.884 120.672 692.441 121.152 691.844 121.504C691.257 121.856 690.527 122.032 689.652 122.032C688.532 122.032 687.625 121.744 686.932 121.168C686.239 120.592 685.817 119.824 685.668 118.864H687.092C687.231 119.472 687.524 119.947 687.972 120.288C688.42 120.629 688.985 120.8 689.668 120.8C690.511 120.8 691.145 120.549 691.572 120.048C691.999 119.536 692.212 118.864 692.212 118.032C692.212 117.2 691.999 116.56 691.572 116.112C691.145 115.653 690.516 115.424 689.684 115.424C689.119 115.424 688.623 115.563 688.196 115.84C687.78 116.107 687.476 116.475 687.284 116.944H685.908V110.416H692.868V111.696ZM695.609 116.096C695.609 114.261 695.908 112.832 696.505 111.808C697.103 110.773 698.148 110.256 699.641 110.256C701.124 110.256 702.164 110.773 702.761 111.808C703.359 112.832 703.657 114.261 703.657 116.096C703.657 117.963 703.359 119.413 702.761 120.448C702.164 121.483 701.124 122 699.641 122C698.148 122 697.103 121.483 696.505 120.448C695.908 119.413 695.609 117.963 695.609 116.096ZM702.217 116.096C702.217 115.168 702.153 114.384 702.025 113.744C701.908 113.093 701.657 112.571 701.273 112.176C700.9 111.781 700.356 111.584 699.641 111.584C698.916 111.584 698.361 111.781 697.977 112.176C697.604 112.571 697.353 113.093 697.225 113.744C697.108 114.384 697.049 115.168 697.049 116.096C697.049 117.056 697.108 117.861 697.225 118.512C697.353 119.163 697.604 119.685 697.977 120.08C698.361 120.475 698.916 120.672 699.641 120.672C700.356 120.672 700.9 120.475 701.273 120.08C701.657 119.685 701.908 119.163 702.025 118.512C702.153 117.861 702.217 117.056 702.217 116.096ZM705.727 116.096C705.727 114.261 706.025 112.832 706.623 111.808C707.22 110.773 708.265 110.256 709.759 110.256C711.241 110.256 712.281 110.773 712.879 111.808C713.476 112.832 713.775 114.261 713.775 116.096C713.775 117.963 713.476 119.413 712.879 120.448C712.281 121.483 711.241 122 709.759 122C708.265 122 707.22 121.483 706.623 120.448C706.025 119.413 705.727 117.963 705.727 116.096ZM712.335 116.096C712.335 115.168 712.271 114.384 712.143 113.744C712.025 113.093 711.775 112.571 711.391 112.176C711.017 111.781 710.473 111.584 709.759 111.584C709.033 111.584 708.479 111.781 708.095 112.176C707.721 112.571 707.471 113.093 707.343 113.744C707.225 114.384 707.167 115.168 707.167 116.096C707.167 117.056 707.225 117.861 707.343 118.512C707.471 119.163 707.721 119.685 708.095 120.08C708.479 120.475 709.033 120.672 709.759 120.672C710.473 120.672 711.017 120.475 711.391 120.08C711.775 119.685 712.025 119.163 712.143 118.512C712.271 117.861 712.335 117.056 712.335 116.096Z" fill="#704E0D"/>
<path d="M746.049 52.0709C747.514 50.3549 747.317 47.7662 745.524 46.3966C734.86 38.2512 722.182 33.1004 708.806 31.5188C694.076 29.7771 679.159 32.4427 665.943 39.1785C652.727 45.9144 641.805 56.418 634.558 69.3612C627.312 82.3043 624.066 97.1056 625.232 111.893C626.397 126.681 631.922 140.791 641.107 152.439C650.292 164.087 662.724 172.75 676.832 177.332C690.94 181.914 706.09 182.21 720.367 178.182C733.33 174.524 745.043 167.451 754.3 157.735C755.856 156.102 755.645 153.514 753.929 152.049C752.213 150.584 749.643 150.797 748.076 152.42C739.876 160.912 729.555 167.099 718.148 170.317C705.427 173.907 691.927 173.643 679.356 169.56C666.785 165.477 655.707 157.758 647.523 147.379C639.339 137.001 634.417 124.428 633.378 111.251C632.339 98.0746 635.231 84.8859 641.688 73.353C648.145 61.82 657.877 52.4608 669.653 46.4588C681.429 40.4568 694.721 38.0816 707.847 39.6336C719.618 41.0253 730.781 45.519 740.209 52.6213C742.012 53.979 744.584 53.7868 746.049 52.0709Z" fill="url(#paint3_linear_42_333)"/>
<path d="M755.15 150.576C756.906 151.995 759.489 151.729 760.811 149.898C771.162 135.56 776.14 117.981 774.78 100.262C773.421 82.5428 765.819 65.9286 753.402 53.3379C751.816 51.7306 749.222 51.861 747.703 53.5313C746.185 55.2016 746.318 57.7786 747.893 59.3964C758.772 70.5757 765.429 85.2485 766.629 100.887C767.829 116.526 763.488 132.043 754.442 144.751C753.133 146.59 753.394 149.157 755.15 150.576Z" fill="#D9D9D9"/>
</g>
<defs>
<linearGradient id="paint0_linear_42_333" x1="210.357" y1="55.6429" x2="210.357" y2="161.714" gradientUnits="userSpaceOnUse">
<stop stop-color="#FFA900"/>
<stop offset="0.447917" stop-color="#BB8C30"/>
<stop offset="1" stop-color="#704E0D"/>
</linearGradient>
<linearGradient id="paint1_linear_42_333" x1="403.75" y1="81.8929" x2="395.179" y2="153.679" gradientUnits="userSpaceOnUse">
<stop stop-color="#FFA900"/>
<stop offset="0.447917" stop-color="#BB8C30"/>
<stop offset="1" stop-color="#704E0D"/>
</linearGradient>
<linearGradient id="paint2_linear_42_333" x1="568.214" y1="51.3571" x2="572.5" y2="152.607" gradientUnits="userSpaceOnUse">
<stop stop-color="#FFA900"/>
<stop offset="0.447917" stop-color="#BB8C30"/>
<stop offset="1" stop-color="#704E0D"/>
</linearGradient>
<linearGradient id="paint3_linear_42_333" x1="748.214" y1="51.3571" x2="752.5" y2="152.607" gradientUnits="userSpaceOnUse">
<stop stop-color="#FFA900"/>
<stop offset="0.447917" stop-color="#BB8C30"/>
<stop offset="1" stop-color="#704E0D"/>
</linearGradient>
<clipPath id="clip0_42_333">
<rect width="860" height="204" rx="8" fill="white"/>
</clipPath>
</defs>
</svg>
