<svg width="20" height="25" viewBox="0 0 20 25" fill="none" xmlns="http://www.w3.org/2000/svg">
<path d="M17.0312 3.125H13.125C13.125 1.40137 11.7236 0 10 0C8.27637 0 6.875 1.40137 6.875 3.125H2.96875C1.6748 3.125 0.625 4.1748 0.625 5.46875V22.6562C0.625 23.9502 1.6748 25 2.96875 25H17.0312C18.3252 25 19.375 23.9502 19.375 22.6562V5.46875C19.375 4.1748 18.3252 3.125 17.0312 3.125ZM5.3125 20.7031C4.66309 20.7031 4.14062 20.1807 4.14062 19.5312C4.14062 18.8818 4.66309 18.3594 5.3125 18.3594C5.96191 18.3594 6.48438 18.8818 6.48438 19.5312C6.48438 20.1807 5.96191 20.7031 5.3125 20.7031ZM5.3125 16.0156C4.66309 16.0156 4.14062 15.4932 4.14062 14.8438C4.14062 14.1943 4.66309 13.6719 5.3125 13.6719C5.96191 13.6719 6.48438 14.1943 6.48438 14.8438C6.48438 15.4932 5.96191 16.0156 5.3125 16.0156ZM5.3125 11.3281C4.66309 11.3281 4.14062 10.8057 4.14062 10.1562C4.14062 9.50684 4.66309 8.98438 5.3125 8.98438C5.96191 8.98438 6.48438 9.50684 6.48438 10.1562C6.48438 10.8057 5.96191 11.3281 5.3125 11.3281ZM10 1.95312C10.6494 1.95312 11.1719 2.47559 11.1719 3.125C11.1719 3.77441 10.6494 4.29688 10 4.29688C9.35059 4.29688 8.82812 3.77441 8.82812 3.125C8.82812 2.47559 9.35059 1.95312 10 1.95312ZM16.25 19.9219C16.25 20.1367 16.0742 20.3125 15.8594 20.3125H8.82812C8.61328 20.3125 8.4375 20.1367 8.4375 19.9219V19.1406C8.4375 18.9258 8.61328 18.75 8.82812 18.75H15.8594C16.0742 18.75 16.25 18.9258 16.25 19.1406V19.9219ZM16.25 15.2344C16.25 15.4492 16.0742 15.625 15.8594 15.625H8.82812C8.61328 15.625 8.4375 15.4492 8.4375 15.2344V14.4531C8.4375 14.2383 8.61328 14.0625 8.82812 14.0625H15.8594C16.0742 14.0625 16.25 14.2383 16.25 14.4531V15.2344ZM16.25 10.5469C16.25 10.7617 16.0742 10.9375 15.8594 10.9375H8.82812C8.61328 10.9375 8.4375 10.7617 8.4375 10.5469V9.76562C8.4375 9.55078 8.61328 9.375 8.82812 9.375H15.8594C16.0742 9.375 16.25 9.55078 16.25 9.76562V10.5469Z" fill="white"/>
</svg>
