<svg width="26" height="25" viewBox="0 0 26 25" fill="none" xmlns="http://www.w3.org/2000/svg">
<path d="M24.8802 13.9705H13.9753L21.2377 21.2329C21.5153 21.5105 21.9721 21.533 22.2575 21.2642C24.0359 19.5886 25.2593 17.3299 25.6182 14.7908C25.6798 14.3561 25.319 13.9705 24.8802 13.9705ZM24.1527 10.9926C23.774 5.5027 19.387 1.11575 13.8972 0.737074C13.478 0.708122 13.1251 1.06152 13.1251 1.48156V11.7646H23.4086C23.8287 11.7646 24.1816 11.4117 24.1527 10.9926ZM10.9192 13.9705V3.06566C10.9192 2.62678 10.5336 2.26603 10.0994 2.32761C4.6228 3.1015 0.436681 7.88597 0.631534 13.6199C0.831902 19.5087 5.90221 24.3377 11.7938 24.2637C14.1099 24.2348 16.2501 23.4885 18.0098 22.2403C18.3728 21.9829 18.3967 21.4485 18.0819 21.1337L10.9192 13.9705Z" fill="white"/>
</svg>
