<svg width="25" height="20" viewBox="0 0 25 20" fill="none" xmlns="http://www.w3.org/2000/svg">
<path d="M15 1.33975C13.4798 0.462062 11.7554 -1.88323e-07 10 0C8.24463 1.88324e-07 6.52019 0.462063 5 1.33975C3.47981 2.21743 2.21743 3.47981 1.33975 5C0.462062 6.52019 -2.65053e-07 8.24463 0 10C2.65053e-07 11.7554 0.462063 13.4798 1.33975 15C2.21743 16.5202 3.47981 17.7826 5 18.6603C6.52019 19.5379 8.24464 20 10 20C11.7554 20 13.4798 19.5379 15 18.6603L13.8951 16.7466C12.7109 17.4303 11.3675 17.7903 10 17.7903C8.63253 17.7903 7.28914 17.4303 6.10487 16.7466C4.9206 16.0628 3.93718 15.0794 3.25344 13.8951C2.5697 12.7109 2.20974 11.3675 2.20974 10C2.20974 8.63253 2.5697 7.28914 3.25344 6.10487C3.93718 4.9206 4.9206 3.93718 6.10487 3.25344C7.28914 2.5697 8.63252 2.20974 10 2.20974C11.3675 2.20974 12.7109 2.5697 13.8951 3.25344L15 1.33975Z" fill="#D9D9D9"/>
<path d="M24.7071 10.7071C25.0976 10.3166 25.0976 9.68342 24.7071 9.29289L18.3431 2.92893C17.9526 2.53841 17.3195 2.53841 16.9289 2.92893C16.5384 3.31946 16.5384 3.95262 16.9289 4.34315L22.5858 10L16.9289 15.6569C16.5384 16.0474 16.5384 16.6805 16.9289 17.0711C17.3195 17.4616 17.9526 17.4616 18.3431 17.0711L24.7071 10.7071ZM7 11H24V9H7V11Z" fill="white"/>
</svg>
