<svg width="11" height="6" viewBox="0 0 11 6" fill="none" xmlns="http://www.w3.org/2000/svg">
<path fill-rule="evenodd" clip-rule="evenodd" d="M1.071 0.304675C1.2583 0.117581 1.5123 0.0124767 1.77714 0.0124767C2.04199 0.0124767 2.29599 0.117581 2.48329 0.304675L5.77232 3.59106L9.06135 0.304675C9.15348 0.209357 9.2637 0.133328 9.38555 0.0810238C9.50741 0.0287201 9.63847 0.00118918 9.77109 3.76812e-05C9.90371 -0.00111382 10.0352 0.0241369 10.158 0.0743168C10.2807 0.124497 10.3922 0.198601 10.486 0.292305C10.5798 0.386009 10.654 0.497437 10.7042 0.620086C10.7544 0.742736 10.7797 0.874151 10.7785 1.00666C10.7774 1.13918 10.7498 1.27013 10.6975 1.39189C10.6451 1.51365 10.569 1.62377 10.4736 1.71583L6.47847 5.7078C6.29117 5.8949 6.03717 6 5.77232 6C5.50748 6 5.25348 5.8949 5.06617 5.7078L1.071 1.71583C0.883753 1.52868 0.778564 1.27489 0.778564 1.01026C0.778564 0.745624 0.883753 0.491826 1.071 0.304675Z" fill="#545454"/>
</svg>
