<svg width="21" height="21" viewBox="0 0 21 21" fill="none" xmlns="http://www.w3.org/2000/svg">
<path d="M10.2348 5.68853L3.8336 12.4683V19.7856C3.8336 19.9751 3.89212 20.1568 3.9963 20.2908C4.10048 20.4247 4.24178 20.5 4.38911 20.5L8.27978 20.4871C8.42663 20.4861 8.56721 20.4104 8.67079 20.2766C8.77437 20.1427 8.83252 19.9615 8.83252 19.7727V15.4994C8.83252 15.31 8.89104 15.1283 8.99522 14.9943C9.0994 14.8603 9.2407 14.7851 9.38803 14.7851H11.6101C11.7574 14.7851 11.8987 14.8603 12.0029 14.9943C12.1071 15.1283 12.1656 15.31 12.1656 15.4994V19.7696C12.1654 19.8636 12.1796 19.9567 12.2074 20.0436C12.2352 20.1306 12.2761 20.2096 12.3277 20.2761C12.3793 20.3427 12.4406 20.3955 12.5081 20.4316C12.5756 20.4676 12.648 20.4862 12.7211 20.4862L16.6104 20.5C16.7577 20.5 16.899 20.4247 17.0032 20.2908C17.1074 20.1568 17.1659 19.9751 17.1659 19.7856V12.4634L10.766 5.68853C10.6908 5.61054 10.5971 5.56801 10.5004 5.56801C10.4038 5.56801 10.3101 5.61054 10.2348 5.68853ZM20.3462 10.2966L17.4437 7.21995V1.03577C17.4437 0.893678 17.3998 0.757402 17.3216 0.656925C17.2435 0.556448 17.1375 0.5 17.027 0.5H15.0827C14.9722 0.5 14.8663 0.556448 14.7881 0.656925C14.71 0.757402 14.6661 0.893678 14.6661 1.03577V4.27765L11.5577 0.988894C11.2593 0.673224 10.885 0.500631 10.4987 0.500631C10.1124 0.500631 9.73807 0.673224 9.43976 0.988894L0.651203 10.2966C0.609015 10.3415 0.57411 10.3966 0.548484 10.4588C0.522859 10.521 0.507014 10.589 0.501855 10.6591C0.496696 10.7292 0.502324 10.7999 0.518418 10.8671C0.534513 10.9344 0.560757 10.997 0.595652 11.0512L1.481 12.4353C1.5158 12.4897 1.5586 12.5347 1.60696 12.5678C1.65532 12.601 1.70828 12.6215 1.76282 12.6282C1.81735 12.635 1.87239 12.6279 1.92477 12.6072C1.97716 12.5866 2.02587 12.5529 2.06811 12.508L10.2348 3.85796C10.3101 3.77998 10.4038 3.73745 10.5004 3.73745C10.5971 3.73745 10.6908 3.77998 10.766 3.85796L18.9331 12.508C18.9753 12.5529 19.0239 12.5867 19.0762 12.6074C19.1286 12.6281 19.1835 12.6353 19.238 12.6287C19.2925 12.622 19.3454 12.6016 19.3938 12.5687C19.4422 12.5357 19.485 12.4909 19.5199 12.4366L20.4052 11.0525C20.4401 10.998 20.4662 10.9351 20.4821 10.8675C20.498 10.8 20.5034 10.729 20.4979 10.6588C20.4924 10.5886 20.4762 10.5204 20.4502 10.4582C20.4241 10.3961 20.3888 10.3412 20.3462 10.2966Z" fill="white"/>
</svg>
