<svg width="82" height="102" viewBox="0 0 82 102" fill="none" xmlns="http://www.w3.org/2000/svg">
<path d="M23.8571 12.1111H12.4286C9.39753 12.1111 6.49062 13.2817 4.34735 15.3655C2.20408 17.4492 1 20.2754 1 23.2222V89.8889C1 92.8357 2.20408 95.6619 4.34735 97.7456C6.49062 99.8294 9.39753 101 12.4286 101H69.5714C72.6025 101 75.5094 99.8294 77.6526 97.7456C79.7959 95.6619 81 92.8357 81 89.8889V23.2222C81 20.2754 79.7959 17.4492 77.6526 15.3655C75.5094 13.2817 72.6025 12.1111 69.5714 12.1111H58.1429M23.8571 12.1111C23.8571 15.058 25.0612 17.8841 27.2045 19.9679C29.3478 22.0516 32.2547 23.2222 35.2857 23.2222H46.7143C49.7453 23.2222 52.6522 22.0516 54.7955 19.9679C56.9388 17.8841 58.1429 15.058 58.1429 12.1111M23.8571 12.1111C23.8571 9.16426 25.0612 6.33811 27.2045 4.25437C29.3478 2.17063 32.2547 1 35.2857 1H46.7143C49.7453 1 52.6522 2.17063 54.7955 4.25437C56.9388 6.33811 58.1429 9.16426 58.1429 12.1111M41 51H58.1429M41 73.2222H58.1429M23.8571 51H23.9143M23.8571 73.2222H23.9143" stroke="white" stroke-width="2" stroke-linecap="round" stroke-linejoin="round"/>
</svg>
