<svg width="19" height="21" viewBox="0 0 19 21" fill="none" xmlns="http://www.w3.org/2000/svg">
<path d="M16.4998 5.01816L15.6328 17.1602C15.5968 17.6647 15.3711 18.137 15.0009 18.4817C14.6307 18.8265 14.1436 19.0182 13.6378 19.0182H5.36176C4.8559 19.0182 4.36882 18.8265 3.99864 18.4817C3.62846 18.137 3.40267 17.6647 3.36676 17.1602L2.49976 5.01816M7.49976 9.01816V15.0182M11.4998 9.01816V15.0182M12.4998 5.01816V2.01816C12.4998 1.75294 12.3944 1.49859 12.2069 1.31105C12.0193 1.12351 11.765 1.01816 11.4998 1.01816H7.49976C7.23454 1.01816 6.98019 1.12351 6.79265 1.31105C6.60511 1.49859 6.49976 1.75294 6.49976 2.01816V5.01816M1.49976 5.01816H17.4998" stroke="#545454" stroke-width="2" stroke-linecap="round" stroke-linejoin="round"/>
</svg>
