<svg width="92" height="92" viewBox="0 0 92 92" fill="none" xmlns="http://www.w3.org/2000/svg">
<path d="M91 91L61 61M71 36C71 40.5963 70.0947 45.1475 68.3358 49.3939C66.5769 53.6403 63.9988 57.4987 60.7487 60.7487C57.4987 63.9988 53.6403 66.5769 49.3939 68.3358C45.1475 70.0947 40.5963 71 36 71C31.4037 71 26.8525 70.0947 22.6061 68.3358C18.3597 66.5769 14.5013 63.9988 11.2513 60.7487C8.00121 57.4987 5.42313 53.6403 3.66422 49.3939C1.9053 45.1475 1 40.5963 1 36C1 26.7174 4.68749 17.815 11.2513 11.2513C17.815 4.68749 26.7174 1 36 1C45.2826 1 54.185 4.68749 60.7487 11.2513C67.3125 17.815 71 26.7174 71 36Z" stroke="white" stroke-width="2" stroke-linecap="round" stroke-linejoin="round"/>
</svg>
