<svg width="92" height="92" viewBox="0 0 92 92" fill="none" xmlns="http://www.w3.org/2000/svg">
<path d="M46 31V46M46 46V61M46 46H61M46 46H31M91 46C91 51.9095 89.836 57.7611 87.5746 63.2208C85.3131 68.6804 81.9984 73.6412 77.8198 77.8198C73.6412 81.9984 68.6804 85.3131 63.2208 87.5746C57.7611 89.836 51.9095 91 46 91C40.0905 91 34.2389 89.836 28.7792 87.5746C23.3196 85.3131 18.3588 81.9984 14.1802 77.8198C10.0016 73.6412 6.68688 68.6804 4.42542 63.2208C2.16396 57.7611 1 51.9095 1 46C1 34.0653 5.74106 22.6193 14.1802 14.1802C22.6193 5.74106 34.0653 1 46 1C57.9347 1 69.3807 5.74106 77.8198 14.1802C86.2589 22.6193 91 34.0653 91 46Z" stroke="white" stroke-width="2" stroke-linecap="round" stroke-linejoin="round"/>
</svg>
